<mxfile host="app.diagrams.net" modified="2022-03-23T08:27:51.882Z" agent="5.0 (Macintosh; Intel Mac OS X 10_15_7) AppleWebKit/537.36 (KHTML, like Gecko) Chrome/99.0.4844.74 Safari/537.36" etag="YNc2egou7qeZKrG04wPD" version="16.5.4" type="github">
  <diagram name="Page-1" id="13e1069c-82ec-6db2-03f1-153e76fe0fe0">
    <mxGraphModel dx="1202" dy="1318" grid="1" gridSize="10" guides="1" tooltips="1" connect="1" arrows="1" fold="1" page="1" pageScale="1" pageWidth="1100" pageHeight="850" background="none" math="0" shadow="0">
      <root>
        <mxCell id="0" />
        <mxCell id="1" parent="0" />
        <mxCell id="S-hRWbPXlDfvL6xt21MJ-28" style="edgeStyle=orthogonalEdgeStyle;rounded=0;orthogonalLoop=1;jettySize=auto;html=1;entryX=-0.1;entryY=0.443;entryDx=0;entryDy=0;entryPerimeter=0;endArrow=block;endFill=1;" edge="1" parent="1" source="7baba1c4bc27f4b0-16" target="S-hRWbPXlDfvL6xt21MJ-23">
          <mxGeometry relative="1" as="geometry">
            <Array as="points">
              <mxPoint x="710" y="335" />
            </Array>
          </mxGeometry>
        </mxCell>
        <mxCell id="S-hRWbPXlDfvL6xt21MJ-29" value="getRoom(rid)" style="edgeLabel;html=1;align=center;verticalAlign=middle;resizable=0;points=[];" vertex="1" connectable="0" parent="S-hRWbPXlDfvL6xt21MJ-28">
          <mxGeometry x="0.2692" relative="1" as="geometry">
            <mxPoint x="-14" as="offset" />
          </mxGeometry>
        </mxCell>
        <mxCell id="7baba1c4bc27f4b0-16" value="" style="html=1;points=[];perimeter=orthogonalPerimeter;rounded=0;shadow=0;comic=0;labelBackgroundColor=none;strokeWidth=1;fontFamily=Verdana;fontSize=12;align=center;" parent="1" vertex="1">
          <mxGeometry x="585" y="245" width="10" height="185" as="geometry" />
        </mxCell>
        <mxCell id="7baba1c4bc27f4b0-11" value="move(rid)" style="html=1;verticalAlign=bottom;endArrow=open;entryX=0;entryY=0;labelBackgroundColor=none;fontFamily=Verdana;fontSize=12;edgeStyle=elbowEdgeStyle;elbow=vertical;endFill=0;" parent="1" source="7baba1c4bc27f4b0-9" target="7baba1c4bc27f4b0-10" edge="1">
          <mxGeometry relative="1" as="geometry">
            <mxPoint x="220" y="190" as="sourcePoint" />
          </mxGeometry>
        </mxCell>
        <mxCell id="7baba1c4bc27f4b0-14" value="move(pid,rid)" style="html=1;verticalAlign=bottom;endArrow=block;entryX=0;entryY=0;labelBackgroundColor=none;fontFamily=Verdana;fontSize=12;edgeStyle=elbowEdgeStyle;elbow=vertical;" parent="1" source="7baba1c4bc27f4b0-10" target="7baba1c4bc27f4b0-13" edge="1">
          <mxGeometry relative="1" as="geometry">
            <mxPoint x="370" y="200" as="sourcePoint" />
          </mxGeometry>
        </mxCell>
        <mxCell id="S-hRWbPXlDfvL6xt21MJ-46" style="edgeStyle=orthogonalEdgeStyle;rounded=0;orthogonalLoop=1;jettySize=auto;html=1;dashed=1;startArrow=none;startFill=0;endArrow=none;endFill=0;" edge="1" parent="1" source="S-hRWbPXlDfvL6xt21MJ-1" target="7baba1c4bc27f4b0-9">
          <mxGeometry relative="1" as="geometry" />
        </mxCell>
        <mxCell id="S-hRWbPXlDfvL6xt21MJ-47" value="" style="edgeStyle=orthogonalEdgeStyle;rounded=0;orthogonalLoop=1;jettySize=auto;html=1;dashed=1;startArrow=none;startFill=0;endArrow=none;endFill=0;" edge="1" parent="1" source="S-hRWbPXlDfvL6xt21MJ-1" target="7baba1c4bc27f4b0-9">
          <mxGeometry relative="1" as="geometry" />
        </mxCell>
        <mxCell id="S-hRWbPXlDfvL6xt21MJ-1" value="Player" style="shape=umlActor;verticalLabelPosition=bottom;verticalAlign=top;html=1;outlineConnect=0;" vertex="1" parent="1">
          <mxGeometry x="135" y="65" width="30" height="60" as="geometry" />
        </mxCell>
        <mxCell id="7baba1c4bc27f4b0-10" value="" style="html=1;points=[];perimeter=orthogonalPerimeter;rounded=0;shadow=0;comic=0;labelBackgroundColor=none;strokeWidth=1;fontFamily=Verdana;fontSize=12;align=center;" parent="1" vertex="1">
          <mxGeometry x="285" y="180" width="10" height="40" as="geometry" />
        </mxCell>
        <mxCell id="S-hRWbPXlDfvL6xt21MJ-7" value="ps1: PlayerState" style="rounded=0;whiteSpace=wrap;html=1;" vertex="1" parent="1">
          <mxGeometry x="245" y="80" width="90" height="40" as="geometry" />
        </mxCell>
        <mxCell id="S-hRWbPXlDfvL6xt21MJ-9" value="" style="endArrow=none;dashed=1;html=1;dashPattern=1 3;strokeWidth=2;rounded=0;exitX=0.5;exitY=0;exitDx=0;exitDy=0;exitPerimeter=0;entryX=0.5;entryY=1;entryDx=0;entryDy=0;" edge="1" parent="1" source="7baba1c4bc27f4b0-10" target="S-hRWbPXlDfvL6xt21MJ-7">
          <mxGeometry width="50" height="50" relative="1" as="geometry">
            <mxPoint x="230" y="170" as="sourcePoint" />
            <mxPoint x="280" y="120" as="targetPoint" />
          </mxGeometry>
        </mxCell>
        <mxCell id="7baba1c4bc27f4b0-13" value="" style="html=1;points=[];perimeter=orthogonalPerimeter;rounded=0;shadow=0;comic=0;labelBackgroundColor=none;strokeWidth=1;fontFamily=Verdana;fontSize=12;align=center;" parent="1" vertex="1">
          <mxGeometry x="445" y="200" width="10" height="260" as="geometry" />
        </mxCell>
        <mxCell id="S-hRWbPXlDfvL6xt21MJ-10" value="gs: Game" style="rounded=0;whiteSpace=wrap;html=1;" vertex="1" parent="1">
          <mxGeometry x="405" y="80" width="90" height="40" as="geometry" />
        </mxCell>
        <mxCell id="S-hRWbPXlDfvL6xt21MJ-12" value="" style="endArrow=none;dashed=1;html=1;dashPattern=1 3;strokeWidth=2;rounded=0;entryX=0.5;entryY=1;entryDx=0;entryDy=0;exitX=0.44;exitY=-0.01;exitDx=0;exitDy=0;exitPerimeter=0;" edge="1" parent="1" source="7baba1c4bc27f4b0-13" target="S-hRWbPXlDfvL6xt21MJ-10">
          <mxGeometry width="50" height="50" relative="1" as="geometry">
            <mxPoint x="350" y="260" as="sourcePoint" />
            <mxPoint x="400" y="210" as="targetPoint" />
          </mxGeometry>
        </mxCell>
        <mxCell id="S-hRWbPXlDfvL6xt21MJ-17" value="getPlayer(pid)" style="edgeStyle=orthogonalEdgeStyle;html=1;align=left;spacingLeft=2;endArrow=block;rounded=0;" edge="1" parent="1">
          <mxGeometry relative="1" as="geometry">
            <mxPoint x="455" y="210" as="sourcePoint" />
            <Array as="points">
              <mxPoint x="490" y="210" />
              <mxPoint x="490" y="240" />
            </Array>
            <mxPoint x="466" y="240" as="targetPoint" />
          </mxGeometry>
        </mxCell>
        <mxCell id="S-hRWbPXlDfvL6xt21MJ-26" style="edgeStyle=orthogonalEdgeStyle;rounded=0;orthogonalLoop=1;jettySize=auto;html=1;endArrow=open;endFill=0;exitX=0.96;exitY=0.406;exitDx=0;exitDy=0;exitPerimeter=0;" edge="1" parent="1" source="7baba1c4bc27f4b0-13">
          <mxGeometry relative="1" as="geometry">
            <mxPoint x="585" y="281" as="targetPoint" />
            <Array as="points">
              <mxPoint x="525" y="281" />
              <mxPoint x="585" y="281" />
            </Array>
          </mxGeometry>
        </mxCell>
        <mxCell id="S-hRWbPXlDfvL6xt21MJ-27" value="move(rid,gs)" style="edgeLabel;html=1;align=center;verticalAlign=middle;resizable=0;points=[];" vertex="1" connectable="0" parent="S-hRWbPXlDfvL6xt21MJ-26">
          <mxGeometry x="-0.0769" y="1" relative="1" as="geometry">
            <mxPoint as="offset" />
          </mxGeometry>
        </mxCell>
        <mxCell id="S-hRWbPXlDfvL6xt21MJ-19" value="" style="html=1;points=[];perimeter=orthogonalPerimeter;rounded=0;shadow=0;comic=0;labelBackgroundColor=none;strokeWidth=1;fontFamily=Verdana;fontSize=12;align=center;" vertex="1" parent="1">
          <mxGeometry x="455" y="240" width="10" height="30" as="geometry" />
        </mxCell>
        <mxCell id="S-hRWbPXlDfvL6xt21MJ-21" value="p1: Player" style="rounded=0;whiteSpace=wrap;html=1;" vertex="1" parent="1">
          <mxGeometry x="545" y="80" width="90" height="40" as="geometry" />
        </mxCell>
        <mxCell id="S-hRWbPXlDfvL6xt21MJ-22" value="" style="endArrow=none;dashed=1;html=1;dashPattern=1 3;strokeWidth=2;rounded=0;entryX=0.5;entryY=1;entryDx=0;entryDy=0;exitX=0.48;exitY=0.006;exitDx=0;exitDy=0;exitPerimeter=0;" edge="1" parent="1" source="7baba1c4bc27f4b0-16" target="S-hRWbPXlDfvL6xt21MJ-21">
          <mxGeometry width="50" height="50" relative="1" as="geometry">
            <mxPoint x="540" y="330" as="sourcePoint" />
            <mxPoint x="590" y="280" as="targetPoint" />
          </mxGeometry>
        </mxCell>
        <mxCell id="S-hRWbPXlDfvL6xt21MJ-30" style="edgeStyle=orthogonalEdgeStyle;rounded=0;orthogonalLoop=1;jettySize=auto;html=1;entryX=0.92;entryY=0.583;entryDx=0;entryDy=0;entryPerimeter=0;endArrow=open;endFill=0;dashed=1;" edge="1" parent="1" source="S-hRWbPXlDfvL6xt21MJ-23" target="7baba1c4bc27f4b0-16">
          <mxGeometry relative="1" as="geometry">
            <Array as="points">
              <mxPoint x="690" y="350" />
              <mxPoint x="690" y="350" />
            </Array>
          </mxGeometry>
        </mxCell>
        <mxCell id="S-hRWbPXlDfvL6xt21MJ-32" value="r1: Room" style="edgeLabel;html=1;align=center;verticalAlign=middle;resizable=0;points=[];" vertex="1" connectable="0" parent="S-hRWbPXlDfvL6xt21MJ-30">
          <mxGeometry x="-0.5135" relative="1" as="geometry">
            <mxPoint x="-29" as="offset" />
          </mxGeometry>
        </mxCell>
        <mxCell id="S-hRWbPXlDfvL6xt21MJ-23" value="" style="html=1;points=[];perimeter=orthogonalPerimeter;rounded=0;shadow=0;comic=0;labelBackgroundColor=none;strokeWidth=1;fontFamily=Verdana;fontSize=12;align=center;" vertex="1" parent="1">
          <mxGeometry x="720" y="255" width="10" height="180" as="geometry" />
        </mxCell>
        <mxCell id="S-hRWbPXlDfvL6xt21MJ-24" value="r1: Room" style="rounded=0;whiteSpace=wrap;html=1;" vertex="1" parent="1">
          <mxGeometry x="680" y="80" width="90" height="40" as="geometry" />
        </mxCell>
        <mxCell id="S-hRWbPXlDfvL6xt21MJ-25" value="" style="endArrow=none;dashed=1;html=1;dashPattern=1 3;strokeWidth=2;rounded=0;entryX=0.5;entryY=1;entryDx=0;entryDy=0;exitX=0.48;exitY=0.006;exitDx=0;exitDy=0;exitPerimeter=0;" edge="1" parent="1" source="S-hRWbPXlDfvL6xt21MJ-23" target="S-hRWbPXlDfvL6xt21MJ-24">
          <mxGeometry width="50" height="50" relative="1" as="geometry">
            <mxPoint x="550" y="340" as="sourcePoint" />
            <mxPoint x="600" y="290" as="targetPoint" />
          </mxGeometry>
        </mxCell>
        <mxCell id="S-hRWbPXlDfvL6xt21MJ-34" style="edgeStyle=orthogonalEdgeStyle;rounded=0;orthogonalLoop=1;jettySize=auto;html=1;entryX=-0.1;entryY=0.443;entryDx=0;entryDy=0;entryPerimeter=0;endArrow=block;endFill=1;" edge="1" parent="1">
          <mxGeometry relative="1" as="geometry">
            <mxPoint x="595.8" y="370" as="sourcePoint" />
            <mxPoint x="719.8" y="370.02" as="targetPoint" />
            <Array as="points">
              <mxPoint x="710.8" y="370.28" />
            </Array>
          </mxGeometry>
        </mxCell>
        <mxCell id="S-hRWbPXlDfvL6xt21MJ-35" value="createRoomState()" style="edgeLabel;html=1;align=center;verticalAlign=middle;resizable=0;points=[];" vertex="1" connectable="0" parent="S-hRWbPXlDfvL6xt21MJ-34">
          <mxGeometry x="0.2692" relative="1" as="geometry">
            <mxPoint x="-14" as="offset" />
          </mxGeometry>
        </mxCell>
        <mxCell id="S-hRWbPXlDfvL6xt21MJ-36" style="edgeStyle=orthogonalEdgeStyle;rounded=0;orthogonalLoop=1;jettySize=auto;html=1;entryX=0.92;entryY=0.583;entryDx=0;entryDy=0;entryPerimeter=0;endArrow=open;endFill=0;dashed=1;" edge="1" parent="1">
          <mxGeometry relative="1" as="geometry">
            <mxPoint x="720.8" y="385.28" as="sourcePoint" />
            <mxPoint x="595" y="385.2199999999999" as="targetPoint" />
            <Array as="points">
              <mxPoint x="690.8" y="385.28" />
              <mxPoint x="690.8" y="385.28" />
            </Array>
          </mxGeometry>
        </mxCell>
        <mxCell id="S-hRWbPXlDfvL6xt21MJ-37" value="rs: RoomState" style="edgeLabel;html=1;align=center;verticalAlign=middle;resizable=0;points=[];" vertex="1" connectable="0" parent="S-hRWbPXlDfvL6xt21MJ-36">
          <mxGeometry x="-0.5135" relative="1" as="geometry">
            <mxPoint x="-29" as="offset" />
          </mxGeometry>
        </mxCell>
        <mxCell id="S-hRWbPXlDfvL6xt21MJ-40" style="edgeStyle=orthogonalEdgeStyle;rounded=0;orthogonalLoop=1;jettySize=auto;html=1;entryX=-0.1;entryY=0.443;entryDx=0;entryDy=0;entryPerimeter=0;endArrow=none;endFill=0;startArrow=open;startFill=0;" edge="1" parent="1">
          <mxGeometry relative="1" as="geometry">
            <mxPoint x="460" y="409" as="sourcePoint" />
            <mxPoint x="584" y="409.0200000000001" as="targetPoint" />
            <Array as="points">
              <mxPoint x="575" y="409.28" />
            </Array>
          </mxGeometry>
        </mxCell>
        <mxCell id="S-hRWbPXlDfvL6xt21MJ-41" value="updated" style="edgeLabel;html=1;align=center;verticalAlign=middle;resizable=0;points=[];" vertex="1" connectable="0" parent="S-hRWbPXlDfvL6xt21MJ-40">
          <mxGeometry x="0.2692" relative="1" as="geometry">
            <mxPoint x="-14" as="offset" />
          </mxGeometry>
        </mxCell>
        <mxCell id="S-hRWbPXlDfvL6xt21MJ-44" style="edgeStyle=orthogonalEdgeStyle;rounded=0;orthogonalLoop=1;jettySize=auto;html=1;entryX=0.04;entryY=0.994;entryDx=0;entryDy=0;entryPerimeter=0;endArrow=none;endFill=0;startArrow=open;startFill=0;" edge="1" parent="1" target="7baba1c4bc27f4b0-16">
          <mxGeometry relative="1" as="geometry">
            <mxPoint x="455" y="425" as="sourcePoint" />
            <mxPoint x="579" y="425.0200000000001" as="targetPoint" />
            <Array as="points">
              <mxPoint x="585" y="425" />
            </Array>
          </mxGeometry>
        </mxCell>
        <mxCell id="S-hRWbPXlDfvL6xt21MJ-45" value="playerMoved" style="edgeLabel;html=1;align=center;verticalAlign=middle;resizable=0;points=[];" vertex="1" connectable="0" parent="S-hRWbPXlDfvL6xt21MJ-44">
          <mxGeometry x="0.2692" relative="1" as="geometry">
            <mxPoint x="-14" as="offset" />
          </mxGeometry>
        </mxCell>
        <mxCell id="7baba1c4bc27f4b0-9" value="" style="html=1;points=[];perimeter=orthogonalPerimeter;rounded=0;shadow=0;comic=0;labelBackgroundColor=none;strokeWidth=1;fontFamily=Verdana;fontSize=12;align=center;" parent="1" vertex="1">
          <mxGeometry x="145" y="180" width="10" height="440" as="geometry" />
        </mxCell>
      </root>
    </mxGraphModel>
  </diagram>
</mxfile>
